<?xml version="1.0" encoding="utf-8"?>
<!-- Generator: Adobe Illustrator 21.0.0, SVG Export Plug-In . SVG Version: 6.00 Build 0)  -->
<svg version="1.1" id="Layer_1" xmlns="http://www.w3.org/2000/svg" xmlns:xlink="http://www.w3.org/1999/xlink" x="0px" y="0px"
	 viewBox="0 0 93.5 32" style="enable-background:new 0 0 93.5 32;" xml:space="preserve">
<style type="text/css">
	.st0{display:none;}
	.st1{display:inline;}
	.st2{fill:#4B82BC;}
	.st3{fill:#EC1C24;}
</style>
<g id="XMLID_21_">
	<g id="XMLID_80_" class="st0">
		<rect id="XMLID_36_" x="0.9" y="30.8" class="st1" width="19.8" height="0.4"/>
		<rect id="XMLID_35_" x="63.2" y="30.8" class="st1" width="21" height="0.4"/>
		<path id="XMLID_34_" class="st1" d="M22.4,31c0,0.5-0.4,1-1,1c-0.5,0-1-0.4-1-1c0-0.5,0.4-1,1-1S22.4,30.4,22.4,31"/>
		<path id="XMLID_33_" class="st1" d="M64.3,30.9c0,0.5-0.4,1-1,1c-0.5,0-1-0.4-1-1c0-0.5,0.4-1,1-1C63.8,30,64.3,30.4,64.3,30.9"/>
	</g>
	<path id="XMLID_28_" class="st2" d="M34.4,21.9c2.9,0,4.5-2.3,4.5-4.6v-1.9l0,0V0.3h-5.8v15.2L21.3,3.6c-3.1-2.8-4.7-3.4-6.4-3.4
		c-2.9,0-4.5,2.3-4.5,4.6v1.3l0,0v16h5.8V6.6L29,19.4C31.4,21.5,32.7,21.9,34.4,21.9"/>
	<path id="XMLID_27_" class="st2" d="M7.4,3.7c0,2.1-1.7,3.7-3.7,3.7C1.6,7.4,0,5.7,0,3.7S1.7,0,3.7,0C5.8,0,7.4,1.6,7.4,3.7"/>
	<path id="XMLID_26_" class="st2" d="M1,9.6c0,0,2.4,1.5,5.8-0.2L6.7,22H1V9.6z"/>
	<polygon id="XMLID_3_" class="st2" points="84.1,5.9 93.5,5.9 93.5,0.1 68.9,0.1 68.9,5.8 78.4,5.9 78.4,21.8 84.1,21.8 	"/>
	<path id="XMLID_2_" class="st3" d="M66,8.4L49.3,8.5c-0.3,0.3-0.7,0.4-1.2,0.4c-1,0-1.8-0.8-1.8-1.8s0.8-1.8,1.8-1.8
		c0.4,0,0.8,0.2,1.1,0.4h16.7V0H46.7c0,0-5.1,0.1-5.1,5.7v11.1c0,0,0.2,4.2,4.8,4.8l19.5-0.1v-5.7H49.2c-0.3,0.2-0.6,0.3-1,0.3
		c-1,0-1.8-0.8-1.8-1.8s0.8-1.8,1.8-1.8c0.5,0,0.9,0.2,1.2,0.5H66V8.4z"/>
</g>
</svg>
